<?xml version="1.0" encoding="UTF-8" standalone="no"?>
<!DOCTYPE svg PUBLIC "-//W3C//DTD SVG 1.1//EN" "http://www.w3.org/Graphics/SVG/1.1/DTD/svg11.dtd">
<svg width="100%" height="100%" viewBox="0 0 200 200" version="1.1" xmlns="http://www.w3.org/2000/svg" xmlns:xlink="http://www.w3.org/1999/xlink" xml:space="preserve" style="fill-rule:evenodd;clip-rule:evenodd;stroke-linejoin:round;stroke-miterlimit:1.41421;">
    <g transform="matrix(4.16667,0,0,4.16667,-316.667,-158.337)">
        <path d="M97.172,62L76.586,41.414C76.475,41.293 76.443,41.266 76.35,41.13C76.211,40.927 76.11,40.698 76.053,40.458C75.925,39.914 76.034,39.33 76.35,38.87C76.454,38.717 76.58,38.579 76.722,38.461C76.865,38.343 77.023,38.245 77.192,38.17C77.418,38.071 77.661,38.014 77.908,38.002C77.969,37.999 78.031,38.002 78.092,38.002C78.154,38.008 78.215,38.013 78.276,38.019C78.437,38.049 78.48,38.051 78.636,38.104C78.869,38.182 79.088,38.304 79.278,38.461C79.325,38.501 79.369,38.544 79.414,38.586L100,59.172L120.586,38.586C120.707,38.475 120.734,38.443 120.87,38.35C121.073,38.211 121.302,38.11 121.542,38.053C121.702,38.015 121.744,38.017 121.908,38.002C121.969,38.002 122.031,38.002 122.092,38.002C122.154,38.008 122.215,38.011 122.276,38.019C122.52,38.053 122.758,38.133 122.973,38.253C123.135,38.343 123.284,38.455 123.414,38.586C123.545,38.716 123.657,38.865 123.747,39.027C124.019,39.515 124.074,40.106 123.896,40.636C123.818,40.869 123.696,41.088 123.539,41.278C123.499,41.325 123.456,41.369 123.414,41.414L102.828,62L123.414,82.586C123.525,82.707 123.557,82.734 123.65,82.87C123.894,83.227 124.018,83.66 123.998,84.092C123.969,84.714 123.643,85.298 123.13,85.65C122.978,85.754 122.811,85.838 122.636,85.896C122.46,85.955 122.277,85.989 122.092,85.998C121.846,86.009 121.598,85.975 121.364,85.896C121.131,85.818 120.912,85.696 120.722,85.539C120.675,85.499 120.631,85.456 120.586,85.414L100,64.828L79.414,85.414C79.369,85.456 79.325,85.499 79.278,85.539C79.088,85.696 78.869,85.818 78.636,85.896C78.46,85.955 78.277,85.989 78.092,85.998C77.471,86.027 76.859,85.756 76.461,85.278C76.343,85.135 76.245,84.977 76.17,84.808C76.071,84.582 76.014,84.339 76.002,84.092C75.982,83.66 76.106,83.227 76.35,82.87C76.443,82.734 76.475,82.707 76.586,82.586L97.172,62Z" style="fill:rgb(191,191,191);"/>
    </g>
</svg>
