<?xml version="1.0" encoding="UTF-8" standalone="no"?>
<!DOCTYPE svg PUBLIC "-//W3C//DTD SVG 1.1//EN" "http://www.w3.org/Graphics/SVG/1.1/DTD/svg11.dtd">
<svg width="100%" height="100%" viewBox="0 0 100 100" version="1.1" xmlns="http://www.w3.org/2000/svg" xmlns:xlink="http://www.w3.org/1999/xlink" xml:space="preserve" style="fill-rule:evenodd;clip-rule:evenodd;stroke-linejoin:round;stroke-miterlimit:1.41421;">
    <path d="M81.29,88.886L18.71,88.886C18.629,88.882 18.548,88.882 18.467,88.875L18.444,88.873L18.435,88.872L18.427,88.871L18.421,88.87L18.414,88.869L18.4,88.868L18.383,88.866L18.376,88.865L18.372,88.864C18.344,88.861 18.317,88.857 18.289,88.852L18.286,88.852L18.281,88.851L18.264,88.848L18.245,88.845L18.241,88.844L18.238,88.844C18.21,88.838 18.181,88.833 18.153,88.827L18.151,88.826L18.148,88.826L18.128,88.821L18.109,88.817L18.107,88.816L18.105,88.816C18.076,88.809 18.048,88.802 18.02,88.794L18.018,88.794L18.015,88.793L17.995,88.787L17.978,88.782L17.974,88.781L17.971,88.78C17.946,88.773 17.921,88.765 17.896,88.757L17.89,88.755L17.887,88.754L17.877,88.751L17.858,88.745L17.851,88.742L17.844,88.74L17.832,88.735L17.822,88.732L17.814,88.729L17.801,88.724L17.787,88.719L17.785,88.718L17.782,88.717L17.758,88.708C17.344,88.548 16.98,88.283 16.697,87.948L16.692,87.942L16.691,87.941L16.689,87.939L16.682,87.93C16.475,87.681 16.313,87.394 16.21,87.083L16.209,87.082L16.209,87.081L16.204,87.065L16.199,87.049L16.197,87.046L16.196,87.043L16.193,87.032L16.188,87.016L16.186,87.009L16.185,87.005L16.183,86.999L16.178,86.982L16.175,86.972L16.174,86.969L16.174,86.966L16.171,86.958L16.167,86.943L16.166,86.937L16.165,86.933L16.162,86.925L16.159,86.913L16.157,86.905L16.156,86.9L16.154,86.893L16.152,86.884L16.149,86.873L16.148,86.866L16.146,86.861L16.145,86.854L16.142,86.841L16.14,86.832L16.139,86.829L16.138,86.825L16.134,86.807L16.132,86.799L16.132,86.797C16.127,86.776 16.123,86.754 16.119,86.733L16.119,86.731L16.117,86.723L16.114,86.705L16.113,86.701L16.113,86.697L16.111,86.689L16.109,86.675L16.108,86.668L16.107,86.663L16.106,86.656L16.104,86.645L16.103,86.636L16.102,86.629L16.101,86.623L16.1,86.615L16.098,86.603L16.097,86.595L16.097,86.59L16.096,86.585L16.094,86.569L16.093,86.561L16.093,86.558L16.092,86.555L16.09,86.533L16.089,86.526L16.089,86.526C16.088,86.515 16.087,86.505 16.086,86.494C16.078,86.413 16.078,86.332 16.075,86.251L16.075,69.079L16.075,69.079L16.075,13.749C16.08,13.657 16.08,13.565 16.089,13.474C16.108,13.291 16.147,13.11 16.204,12.935C16.462,12.139 17.1,11.501 17.896,11.243C18.071,11.186 18.251,11.148 18.435,11.128C18.526,11.119 18.618,11.119 18.71,11.114L81.29,11.114C81.382,11.119 81.474,11.123 81.565,11.128C81.656,11.143 81.748,11.152 81.838,11.171C82.018,11.21 82.194,11.267 82.362,11.342C83.039,11.643 83.567,12.23 83.796,12.935C83.853,13.11 83.892,13.291 83.911,13.474C83.92,13.565 83.92,13.657 83.925,13.749L83.925,69.079L83.925,69.079L83.925,86.251C83.922,86.332 83.922,86.413 83.914,86.494L83.912,86.517L83.911,86.526L83.91,86.534L83.909,86.539L83.909,86.547L83.907,86.561L83.905,86.577L83.904,86.585L83.904,86.589C83.9,86.616 83.896,86.644 83.891,86.672L83.891,86.675L83.89,86.68L83.887,86.697L83.884,86.716L83.883,86.72L83.883,86.723C83.877,86.751 83.872,86.78 83.866,86.808L83.865,86.81L83.865,86.813L83.86,86.832L83.856,86.851L83.855,86.854L83.855,86.856C83.848,86.884 83.841,86.913 83.833,86.941L83.833,86.943L83.832,86.946L83.826,86.966L83.822,86.982L83.82,86.987L83.82,86.99C83.812,87.015 83.804,87.04 83.796,87.065L83.795,87.071L83.793,87.074L83.79,87.084L83.784,87.102L83.781,87.11L83.779,87.117L83.774,87.13L83.771,87.139L83.768,87.146L83.763,87.16L83.758,87.174L83.757,87.176L83.756,87.179L83.747,87.203C83.587,87.617 83.322,87.982 82.987,88.264L82.981,88.269L82.98,88.27L82.978,88.271L82.968,88.28C82.72,88.486 82.433,88.648 82.123,88.751L82.121,88.752L82.119,88.752L82.104,88.757L82.088,88.762L82.085,88.763L82.081,88.764L82.071,88.768L82.056,88.772L82.048,88.775L82.044,88.776L82.038,88.778L82.022,88.782L82.011,88.786L82.008,88.787L82.005,88.787L81.998,88.789L81.982,88.794L81.976,88.795L81.972,88.796L81.965,88.798L81.952,88.802L81.944,88.804L81.939,88.805L81.932,88.807L81.923,88.809L81.912,88.812L81.905,88.813L81.9,88.814L81.893,88.816L81.879,88.819L81.872,88.821L81.868,88.822L81.864,88.823L81.845,88.827L81.838,88.829L81.836,88.829C81.815,88.833 81.793,88.838 81.772,88.842L81.77,88.842L81.763,88.843L81.744,88.847L81.74,88.847L81.736,88.848L81.728,88.849L81.714,88.852L81.707,88.853L81.702,88.854L81.695,88.855L81.684,88.856L81.675,88.858L81.668,88.859L81.662,88.86L81.654,88.861L81.642,88.863L81.634,88.864L81.63,88.864L81.624,88.865L81.608,88.867L81.6,88.868L81.597,88.868L81.594,88.869L81.57,88.871L81.565,88.872L81.565,88.872C81.554,88.873 81.544,88.874 81.533,88.875C81.452,88.882 81.371,88.882 81.29,88.886ZM78.655,16.384L21.345,16.384L21.345,66.443L38.161,66.443L38.403,66.455C38.483,66.466 38.564,66.473 38.643,66.488C38.802,66.518 38.958,66.562 39.109,66.62C39.871,66.914 40.464,67.561 40.692,68.344C40.737,68.5 40.768,68.659 40.784,68.82C40.804,69.024 40.797,69.231 40.803,69.436C40.808,69.554 40.815,69.671 40.823,69.789C40.852,70.136 40.896,70.48 40.961,70.822C41.096,71.525 41.314,72.211 41.609,72.863C42.295,74.381 43.398,75.699 44.767,76.649C45.593,77.222 46.513,77.658 47.481,77.933C48.452,78.209 49.467,78.321 50.475,78.27C51.504,78.218 52.522,77.993 53.476,77.603C54.539,77.168 55.517,76.532 56.348,75.74C57.205,74.923 57.903,73.942 58.391,72.863C58.766,72.036 59.015,71.153 59.13,70.253C59.18,69.857 59.201,69.46 59.204,69.062L59.216,68.82C59.228,68.74 59.236,68.659 59.251,68.58C59.297,68.342 59.376,68.11 59.485,67.894C59.815,67.239 60.416,66.743 61.121,66.543C61.276,66.499 61.436,66.469 61.597,66.455C61.677,66.447 61.758,66.447 61.839,66.443L78.655,66.443L78.655,16.384Z" style="fill:rgb(191,191,191);"/>
</svg>
