<?xml version="1.0" encoding="UTF-8" standalone="no"?>
<!DOCTYPE svg PUBLIC "-//W3C//DTD SVG 1.1//EN" "http://www.w3.org/Graphics/SVG/1.1/DTD/svg11.dtd">
<svg width="100%" height="100%" viewBox="0 0 100 100" version="1.1" xmlns="http://www.w3.org/2000/svg" xmlns:xlink="http://www.w3.org/1999/xlink" xml:space="preserve" style="fill-rule:evenodd;clip-rule:evenodd;stroke-linejoin:round;stroke-miterlimit:1.41421;">
    <path d="M38.346,51.171C37.447,50.599 36.591,49.96 35.785,49.262C34.01,47.724 32.485,45.9 31.289,43.878C30.436,42.436 29.751,40.895 29.253,39.296C28.14,35.719 27.975,31.86 28.773,28.2C29.114,26.635 29.63,25.11 30.307,23.659C31.157,21.84 32.261,20.141 33.576,18.623C35.459,16.45 37.771,14.655 40.346,13.375C42.099,12.503 43.969,11.872 45.892,11.503C47.063,11.278 48.249,11.155 49.441,11.121C49.674,11.116 49.907,11.114 50.14,11.114C51.245,11.125 52.347,11.211 53.439,11.385C55.422,11.702 57.359,12.296 59.179,13.146C61.786,14.364 64.142,16.104 66.078,18.233C67.486,19.783 68.67,21.535 69.58,23.421C70.313,24.942 70.867,26.55 71.227,28.2C72.005,31.772 71.868,35.535 70.825,39.04C70.346,40.647 69.679,42.198 68.843,43.651C67.715,45.612 66.279,47.395 64.605,48.916C63.688,49.75 62.699,50.505 61.654,51.171C65.825,52.558 69.738,54.699 73.161,57.457C77.084,60.617 80.352,64.576 82.704,69.032C84.869,73.132 86.245,77.635 86.743,82.244C86.853,83.259 86.92,84.278 86.946,85.299C86.952,85.536 86.956,85.774 86.958,86.012C86.959,86.178 86.962,86.344 86.946,86.509C86.92,86.775 86.853,87.037 86.748,87.282C86.644,87.528 86.501,87.758 86.328,87.961C85.922,88.437 85.349,88.758 84.73,88.854C84.466,88.896 84.197,88.897 83.932,88.857C83.668,88.817 83.41,88.737 83.17,88.62C82.93,88.504 82.708,88.35 82.514,88.167C82.059,87.737 81.768,87.148 81.702,86.526C81.684,86.351 81.688,86.218 81.687,86.046C81.686,85.865 81.685,85.817 81.682,85.637C81.677,85.433 81.672,85.229 81.665,85.025C81.615,83.82 81.505,82.618 81.322,81.425C80.967,79.104 80.351,76.823 79.489,74.638C78.318,71.669 76.692,68.882 74.689,66.396C72.619,63.826 70.148,61.58 67.392,59.764C64.71,57.999 61.76,56.644 58.671,55.766C55.331,54.816 51.836,54.428 48.368,54.604C44.824,54.784 41.315,55.562 38.029,56.905C34.37,58.401 31.003,60.59 28.143,63.317C25.147,66.173 22.716,69.612 21.033,73.393C19.868,76.011 19.064,78.787 18.648,81.622C18.423,83.158 18.317,84.707 18.312,86.259L18.298,86.526C18.261,86.76 18.261,86.821 18.189,87.048C18.027,87.558 17.708,88.013 17.283,88.34C17.072,88.503 16.835,88.633 16.584,88.725C16.333,88.817 16.069,88.87 15.802,88.883C15.535,88.896 15.267,88.868 15.008,88.8C14.403,88.641 13.865,88.264 13.509,87.749C13.357,87.53 13.239,87.287 13.16,87.032C13.107,86.862 13.072,86.686 13.054,86.509C13.038,86.344 13.041,86.178 13.042,86.012C13.044,85.774 13.048,85.537 13.054,85.299C13.08,84.278 13.147,83.259 13.257,82.244C13.747,77.709 15.087,73.277 17.192,69.23C19.585,64.628 22.954,60.548 27.012,57.318C30.394,54.627 34.245,52.535 38.346,51.171ZM49.893,16.385C49.055,16.393 48.219,16.458 47.391,16.59C45.892,16.829 44.427,17.278 43.052,17.921C41.075,18.844 39.289,20.164 37.822,21.779C36.755,22.953 35.857,24.281 35.168,25.71C34.614,26.86 34.195,28.075 33.923,29.322C33.347,31.962 33.431,34.742 34.17,37.341C34.517,38.562 35.008,39.742 35.628,40.85C36.498,42.406 37.621,43.817 38.94,45.016C40.361,46.308 42.007,47.35 43.785,48.077C45.72,48.868 47.803,49.279 49.893,49.292C51.988,49.305 54.08,48.921 56.029,48.151C57.817,47.446 59.476,46.424 60.913,45.148C62.246,43.966 63.386,42.568 64.274,41.023C64.907,39.924 65.411,38.751 65.773,37.536C66.544,34.946 66.662,32.169 66.119,29.522C65.863,28.27 65.459,27.048 64.917,25.89C64.245,24.452 63.364,23.113 62.31,21.926C60.862,20.295 59.093,18.954 57.128,18.007C55.763,17.348 54.306,16.881 52.812,16.624C51.988,16.482 51.155,16.406 50.319,16.387C50.177,16.385 50.035,16.384 49.893,16.385Z" style="fill:rgb(191,191,191);"/>
</svg>
